simulation
nRows=74
nColumns=15
endheader
time  TH_x TH_y TH_z SC_y  SC_z  SC_x  AC_y  AC_z  AC_x  GH_y  GH_z  GH_yy  EL_x  PS_y
0.750078  0.000000  0.000000  0.000000  -46.272771  2.512041  16.371394  50.656599  -22.637784  -9.144786  -12.431903  19.949176  10.293803  15.587509  119.213959
0.750390  0.000000  0.000000  0.000000  -49.656846  15.263570  16.371394  42.061957  -22.096781  -14.448928  -19.600505  9.862713  2.628012  25.496379  123.341871
0.750702  0.000000  0.000000  0.000000  -42.348554  16.411105  16.371394  41.050790  -23.483083  -10.503782  -5.346532  6.337970  15.178124  24.119057  121.743684
0.751014  0.000000  0.000000  0.000000  -26.210914  8.853774  16.371394  43.013778  -25.805532  -8.712216  -11.300693  12.675214  2.411106  28.514003  109.637337
0.751326  0.000000  0.000000  0.000000  -52.971940  8.123918  16.371394  46.518084  -24.050104  -9.412734  -15.806176  10.394653  12.255748  26.650452  125.281487
0.751638  0.000000  0.000000  0.000000  -28.998244  -1.139951  16.371394  48.101018  -25.498449  -8.324818  -12.213185  24.448377  14.762256  26.747160  109.655579
0.751950  0.000000  0.000000  0.000000  -17.904673  15.034541  16.371394  47.383938  -17.710442  -4.122596  -17.979101  22.338563  12.926832  21.462511  108.900673
0.752262  0.000000  0.000000  0.000000  -18.466971  11.847840  16.371394  38.856931  -19.329408  -17.009028  -15.545092  13.517246  11.399263  13.773591  115.791744
0.752574  0.000000  0.000000  0.000000  -17.260170  7.858184  16.371394  49.544434  -9.338212  -6.198756  -20.445669  11.285769  12.204486  28.843486  111.881033
0.752886  0.000000  0.000000  0.000000  -28.300435  8.372937  16.371394  45.136498  -25.420963  -6.423817  -18.066372  11.150349  15.958544  20.312845  114.770291
0.753198  0.000000  0.000000  0.000000  -33.079291  -0.835736  22.371394  45.981793  -7.673892  -16.399441  -11.312182  15.170669  9.864425  20.889997  116.305258
0.753510  0.000000  0.000000  0.000000  -19.866207  -4.771877  22.371394  46.090546  -32.191829  -12.472278  -9.996771  21.693043  0.505870  11.161455  117.694627
0.753822  0.000000  0.000000  0.000000  -13.923159  -10.453512  22.371394  54.143560  -23.274051  -14.379895  -17.332041  20.193428  10.067555  19.443691  113.303832
0.754134  0.000000  0.000000  0.000000  -24.903031  11.882914  22.371394  47.838420  -14.579332  -8.826124  -16.092287  24.344454  12.012067  14.328257  116.463397
0.754446  0.000000  0.000000  0.000000  -18.701208  2.092375  22.371394  39.463386  -25.574579  -23.321991  -13.508927  17.238224  7.137267  21.091572  113.449199
0.754758  0.000000  0.000000  0.000000  -33.687626  15.711814  22.371394  36.670931  -24.421983  -22.050960  -1.842554  9.374507  13.657785  11.347577  120.426999
0.755070  0.000000  0.000000  0.000000  -31.434035  12.174959  22.371394  39.294159  -28.016594  -15.500008  -5.226091  13.242042  16.878390  21.997307  121.299702
0.755382  0.000000  0.000000  0.000000  -43.668213  12.056613  22.371394  41.172700  -27.123371  -16.445402  -1.668369  13.330101  0.410075  26.344373  108.180784
0.755694  0.000000  0.000000  0.000000  -25.744204  15.444633  22.371394  40.880471  -19.704039  -14.949275  -11.902776  10.213799  19.795511  30.317155  111.981721
0.756006  0.000000  0.000000  0.000000  -26.464029  10.790833  22.371394  36.046498  -25.953783  -24.602722  -5.828811  24.991166  10.850209  30.766389  123.576721
0.756318  0.000000  0.000000  0.000000  -24.558916  7.661610  22.371394  43.541993  -23.921099  -14.012306  -7.379955  14.081782  -0.026824  28.871498  122.185596
0.756630  0.000000  0.000000  0.000000  -17.763706  19.045735  22.371394  42.017406  -31.963483  -6.781426  -14.931015  24.767556  6.364105  28.852774  121.129672
0.756942  0.000000  0.000000  0.000000  -21.703091  11.471970  22.371394  49.722899  -13.398495  -11.005260  -11.722576  23.397288  16.824858  16.871613  111.345746
0.757254  0.000000  0.000000  0.000000  -19.090650  17.475632  22.371394  41.708269  -17.929970  -13.036448  -11.490761  14.768869  11.010505  24.807110  122.148635
0.757566  0.000000  0.000000  0.000000  -20.684939  13.858631  22.371394  46.040427  -19.754457  -8.057816  -18.179611  17.875246  12.929178  28.257704  125.294905
0.757878  0.000000  0.000000  0.000000  -21.686831  11.981157  22.371394  43.345316  -18.152068  -16.408467  -11.069044  9.798877  2.962832  30.508557  120.641634
0.758190  0.000000  0.000000  0.000000  -42.124404  4.369398  22.371394  43.931127  -28.384080  -15.750694  -6.978952  24.710806  1.017803  29.146753  125.410266
0.758502  0.000000  0.000000  0.000000  -50.980027  15.961206  22.371394  38.493539  -31.304259  -20.227874  -9.172445  20.843811  8.743470  23.938017  107.172867
0.758814  0.000000  0.000000  0.000000  -32.575571  -0.591154  2.391960  44.724813  7.123515  -3.235610  -10.702748  10.617914  11.942978  21.106430  116.827439
0.759126  0.000000  0.000000  0.000000  -32.575571  -0.591154  -7.608040  43.375676  14.086016  4.072253  -10.702748  10.617914  11.942978  21.106430  116.827439
0.759438  0.000000  0.000000  0.000000  -47.876445  16.550503  -7.608040  48.688349  2.958296  9.008076  -7.621926  12.566740  4.425590  27.345050  111.996307
0.759750  0.000000  0.000000  0.000000  -20.576170  3.907799  -7.608040  41.895637  -7.968499  -1.267241  -3.116915  9.229282  11.283946  30.776366  126.639250
0.760062  0.000000  0.000000  0.000000  -33.625277  11.774869  -7.608040  47.212765  -1.050922  4.789992  -10.834049  14.733410  8.122340  28.015946  118.713726
0.760374  0.000000  0.000000  0.000000  -24.288815  11.641430  -7.608040  48.619458  5.958246  6.886686  -11.375795  8.710163  12.246411  20.520318  110.300642
0.760686  0.000000  0.000000  0.000000  -15.857657  14.196403  -7.608040  41.397525  -8.991120  0.686699  -1.123754  12.171105  2.815652  28.969965  119.744103
0.760998  0.000000  0.000000  0.000000  -20.147942  17.235197  -7.608040  47.925125  9.148480  10.851574  -7.019527  16.145751  3.815693  12.163945  110.649427
0.761310  0.000000  0.000000  0.000000  -35.919583  9.438638  -7.608040  52.710048  9.534314  11.664902  -14.296859  6.717612  10.549876  26.711349  123.842541
0.761622  0.000000  0.000000  0.000000  -12.625024  15.747826  -7.608040  39.597565  -3.517500  0.106708  -11.398258  18.648254  18.941765  23.446948  109.091489
0.761934  0.000000  0.000000  0.000000  -34.009777  14.736174  -7.608040  45.765313  -4.061577  9.432082  -18.139791  14.190803  20.900275  14.977528  115.005622
0.762246  0.000000  0.000000  0.000000  -31.651117  14.228078  -7.608040  44.156524  -3.185316  5.102643  -2.351885  15.309964  20.636408  30.223243  107.655424
0.762559  0.000000  0.000000  0.000000  -15.564566  7.094267  -7.608040  53.017638  6.427389  8.894711  -18.742555  19.127646  16.851274  19.696251  110.248086
0.762871  0.000000  0.000000  0.000000  -28.810518  9.880103  -7.608040  48.743321  1.264787  6.677389  -1.327845  5.854249  17.247181  14.531962  122.601553
0.763183  0.000000  0.000000  0.000000  -27.205882  7.514811  -7.608040  47.546732  -10.348378  4.774165  -6.769091  11.617937  3.468093  17.154262  118.291554
0.763495  0.000000  0.000000  0.000000  -39.587349  13.391771  -7.608040  50.875455  -0.219259  13.289012  -11.487337  6.640281  6.777497  22.775081  111.589508
0.763807  0.000000  0.000000  0.000000  -15.925687  8.758726  -7.608040  38.021179  -7.454148  -4.890133  -4.397508  7.490849  16.080050  16.208282  123.600989
0.764119  0.000000  0.000000  0.000000  -52.400264  19.184807  -7.608040  47.629057  -10.020190  9.488954  -12.625263  18.475260  12.944382  18.048157  124.843088
0.764431  0.000000  0.000000  0.000000  -32.575571  -0.591154  -1.608040  44.297015  9.928294  -0.351549  -10.702748  10.617914  11.942978  21.106430  116.827439
0.764743  0.000000  0.000000  0.000000  -18.990356  13.818155  -1.608040  40.385824  -12.865033  -1.920858  -18.708405  17.701573  16.092914  18.371860  114.333845
0.765055  0.000000  0.000000  0.000000  -13.945262  16.041580  -1.608040  44.681352  -5.423847  6.054339  -20.619712  12.679127  7.364782  23.357890  117.603377
0.765367  0.000000  0.000000  0.000000  -39.506022  8.457087  -1.608040  42.932237  -14.846923  -5.218711  -5.698487  4.319152  20.082677  19.298464  118.588643
0.765679  0.000000  0.000000  0.000000  -15.854636  8.518906  -1.608040  45.172114  -7.786521  -2.084855  -6.862650  14.209907  16.193219  28.395539  108.204038
0.765991  0.000000  0.000000  0.000000  -36.948315  2.408897  -1.608040  48.760214  -13.689639  2.317668  -15.385547  7.321649  16.586693  29.988583  109.494739
0.766303  0.000000  0.000000  0.000000  -14.663186  15.237181  -1.608040  40.347764  -9.938480  -1.957513  -18.644518  11.991039  2.708262  15.458370  108.691236
0.766615  0.000000  0.000000  0.000000  -15.361885  1.550832  -1.608040  50.741521  -6.382589  2.232005  -6.254616  20.205247  21.346087  13.444108  120.630352
0.766927  0.000000  0.000000  0.000000  -28.106742  -5.142605  -1.608040  53.767519  -12.460869  2.327566  -8.713885  20.535820  9.828329  14.851319  108.765319
0.767239  0.000000  0.000000  0.000000  -50.489166  15.066002  -1.608040  47.390853  -11.677347  4.989925  -5.189106  7.050264  17.627794  28.465068  124.654535
0.767551  0.000000  0.000000  0.000000  -37.367568  14.376055  -1.608040  41.232703  -11.074720  -5.039236  -16.830429  15.267828  6.582006  29.671250  110.201582
0.767863  0.000000  0.000000  0.000000  -43.679119  10.061425  -1.608040  48.760641  -11.612768  1.011924  -12.290539  19.369527  2.336681  30.287109  113.478017
0.768175  0.000000  0.000000  0.000000  -19.386438  14.476227  -1.608040  47.258144  -7.853007  6.567805  -16.339839  11.948818  11.480697  22.386385  107.944184
0.768487  0.000000  0.000000  0.000000  -18.894569  2.354253  -1.608040  53.164352  -3.990662  4.515357  -14.002950  5.236129  10.928681  30.268335  109.452873
0.768799  0.000000  0.000000  0.000000  -46.743729  18.639872  -1.608040  44.216061  -8.389161  -1.107515  -16.471638  3.808804  15.995947  27.374309  115.098636
0.769111  0.000000  0.000000  0.000000  -32.575571  -0.591154  4.391960  44.884474  5.714052  -4.663553  -10.702748  10.617914  11.942978  21.106430  116.827439
0.769423  0.000000  0.000000  0.000000  -23.800146  10.451789  4.391960  45.226402  -13.958326  -3.483643  -19.291780  16.525247  2.551732  20.038843  111.136905
0.769735  0.000000  0.000000  0.000000  -52.203624  10.426912  4.391960  46.649124  -13.540519  -2.466072  -1.004834  8.961166  17.798577  18.031420  120.325986
0.770047  0.000000  0.000000  0.000000  -39.756871  16.776692  4.391960  42.793295  -15.176044  -3.908632  -15.460717  8.406993  17.486565  24.554442  120.909593
0.770359  0.000000  0.000000  0.000000  -22.659950  0.473911  4.391960  48.261122  -17.700788  -2.335605  -7.912678  3.014453  12.966647  28.092292  108.380024
0.770671  0.000000  0.000000  0.000000  -37.780856  -1.846751  4.391960  49.402280  -15.402491  -4.355869  -19.957448  10.223141  12.091675  11.732365  114.999152
0.770983  0.000000  0.000000  0.000000  -40.320182  18.118418  4.391960  38.720398  -18.497296  -5.779048  -10.070763  16.419842  4.452826  14.769381  115.845752
0.771295  0.000000  0.000000  0.000000  -18.668313  7.418623  4.391960  50.445069  -6.733312  2.658305  -8.007900  10.178761  13.191779  16.235185  109.753567
0.771607  0.000000  0.000000  0.000000  -22.512139  8.516242  4.391960  50.309037  -9.718240  0.677893  -12.139313  8.455513  1.973471  30.999848  113.595949
0.771919  0.000000  0.000000  0.000000  -40.971657  4.536261  4.391960  52.205738  -9.952096  -0.348863  -4.867332  11.049954  2.314073  18.406450  117.866668
0.772231  0.000000  0.000000  0.000000  -31.577136  9.543606  4.391960  52.042164  -10.479103  3.838478  -13.675442  7.980867  12.605756  26.519230  119.332846
0.772543  0.000000  0.000000  0.000000  -46.134774  13.824373  4.391960  47.795541  -17.506753  2.357322  -4.416213  6.721052  11.649520  19.224946  108.273858
0.772855  0.000000  0.000000  0.000000  -36.647449  14.139731  4.391960  48.087811  -8.986917  2.397503  -19.536256  11.565548  7.883993  23.109094  109.712359
